<?xml version="1.0" encoding="UTF-8" standalone="no"?>
<svg
   width="743.25385pt"
   height="315.75pt"
   version="1.1"
   viewBox="0 0 743.25386 315.75"
   id="svg464"
   sodipodi:docname="nba-title-belt.svg"
   inkscape:version="1.1.1 (3bf5ae0d25, 2021-09-20)"
   xmlns:inkscape="http://www.inkscape.org/namespaces/inkscape"
   xmlns:sodipodi="http://sodipodi.sourceforge.net/DTD/sodipodi-0.dtd"
   xmlns="http://www.w3.org/2000/svg"
   xmlns:svg="http://www.w3.org/2000/svg">
  <sodipodi:namedview
     id="namedview466"
     pagecolor="#ffffff"
     bordercolor="#666666"
     borderopacity="1.0"
     inkscape:pageshadow="2"
     inkscape:pageopacity="0.0"
     inkscape:pagecheckerboard="0"
     inkscape:document-units="pt"
     showgrid="true"
     inkscape:zoom="1.2003863"
     inkscape:cx="691.02756"
     inkscape:cy="232.42518"
     inkscape:window-width="1920"
     inkscape:window-height="1046"
     inkscape:window-x="-11"
     inkscape:window-y="-11"
     inkscape:window-maximized="1"
     inkscape:current-layer="g462"
     inkscape:lockguides="false"
     inkscape:snap-to-guides="true"
     inkscape:snap-page="true"
     showguides="true"
     fit-margin-top="0"
     fit-margin-left="0"
     fit-margin-right="0"
     fit-margin-bottom="0">
    <inkscape:grid
       type="xygrid"
       id="grid5252"
       originx="67.876913"
       originy="-43.085852" />
  </sodipodi:namedview>
  <defs
     id="defs378">
    <rect
       x="497.70389"
       y="358.03641"
       width="116.38955"
       height="53.20665"
       id="rect2970" />
  </defs>
  <g
     id="g462"
     transform="translate(56.906598,-110.93146)">
    <text
       xml:space="preserve"
       transform="scale(0.75)"
       id="text2968"
       style="font-style:normal;font-weight:normal;font-size:40px;line-height:1.25;font-family:sans-serif;white-space:pre;shape-inside:url(#rect2970);fill:#000000;fill-opacity:1;stroke:none" />
    <text
       xml:space="preserve"
       style="font-size:30px;line-height:1.25;font-family:helvetica;-inkscape-font-specification:helvetica;stroke-width:0.75"
       x="277.67221"
       y="254.39432"
       id="text5168"><tspan
         sodipodi:role="line"
         id="tspan5166"
         style="stroke-width:0.75"
         x="277.67221"
         y="254.39432" /></text>
    <rect
       style="fill:#000000;fill-opacity:1;stroke:#000000;stroke-width:0.753817"
       id="rect16875"
       width="742.5"
       height="165"
       x="-56.52969"
       y="186.30646"
       ry="14.999992" />
    <circle
       style="fill:#000000;fill-opacity:1;stroke:#000000;stroke-width:0.75"
       id="path16990"
       cx="314.72034"
       cy="268.80646"
       r="157.5" />
    <circle
       style="fill:#ffd42a;fill-opacity:1;stroke:#000000;stroke-width:0.636831"
       id="path16990-4"
       cx="314.72034"
       cy="271.1843"
       r="133.73438" />
    <path
       d="m 62.105777,222.41371 c -9.850802,0.3668 -18.888989,3.7533 -26.220244,9.27987 8.456212,8.94979 13.639839,21.04152 13.639839,34.36904 v 0.94887 H 62.132723 V 222.4136 Z m 3.600208,0 v 44.5979 h 12.76433 c 1.401785,-12.9111 7.68746,-24.32185 16.98243,-32.35633 -7.85893,-7.25615 -18.248025,-11.80982 -29.747578,-12.24136 z M 33.1394,233.96451 c 0,0.006 0.01994,0.009 0.01994,0.0143 0,-0.003 0.01994,-0.009 0.01994,-0.0143 z m 0.01994,0.0143 c -9.193719,8.12368 -15.115068,19.84819 -15.60783,33.032 h 28.435024 v -0.94887 c 0,-12.48937 -4.877641,-23.75846 -12.82741,-32.08485 z m 64.837175,3.20951 c -8.64666,7.38841 -14.536974,17.88426 -15.932389,29.82309 h 28.243154 c -0.43377,-11.53567 -5.01319,-21.956 -12.310755,-29.82309 z m -80.473379,33.39942 c 0.439342,11.7788 5.2069,22.39081 12.771472,30.31505 8.570111,-7.56233 14.30101,-18.2368 15.458007,-30.31505 z m 31.815397,0 c -1.162579,13.0299 -7.283295,24.6056 -16.47926,32.81358 7.802387,7.00343 18.009602,11.37932 29.278087,11.79799 v -44.61014 z m 16.37168,0 -0.01995,44.61014 c 9.578909,-0.35961 18.387442,-3.57857 25.605812,-8.83976 -8.165934,-8.89549 -13.14482,-20.78024 -13.14482,-33.84851 0,-0.64588 0.06938,-1.28217 0.06938,-1.92248 z m 16.098952,0 c -0.06859,0.63949 -0.0678,1.2758 -0.0678,1.92248 0,12.25809 4.70045,23.34 12.39118,31.61943 9.519915,-8.14124 15.673155,-20.08191 16.173055,-33.54231 z"
       id="path17200"
       style="fill:#ffcc00;stroke-width:0.204128" />
    <path
       d="m 567.0896,222.41371 c -9.8508,0.3668 -18.88899,3.7533 -26.22025,9.27987 8.45622,8.94979 13.63984,21.04152 13.63984,34.36904 v 0.94887 h 12.60735 V 222.4136 Z m 3.60021,0 v 44.5979 h 12.76432 c 1.40179,-12.9111 7.68746,-24.32185 16.98244,-32.35634 -7.85893,-7.25614 -18.24803,-11.80982 -29.74758,-12.24135 z m -32.56659,11.5508 c 0,0.006 0.0199,0.009 0.0199,0.0143 0,-0.003 0.0199,-0.009 0.0199,-0.0143 z m 0.0199,0.0143 c -9.19372,8.12368 -15.11507,19.84819 -15.60783,33.032 h 28.43502 v -0.94887 c 0,-12.48937 -4.87764,-23.75846 -12.82741,-32.08485 z m 64.83718,3.20951 c -8.64666,7.38841 -14.53698,17.88426 -15.93239,29.82309 h 28.24315 c -0.43377,-11.53567 -5.01319,-21.956 -12.31076,-29.82309 z m -80.47338,33.39942 c 0.43934,11.7788 5.2069,22.39081 12.77147,30.31505 8.57011,-7.56233 14.30101,-18.2368 15.458,-30.31505 z m 31.81539,0 c -1.16258,13.0299 -7.28329,24.6056 -16.47926,32.81358 7.80239,7.00343 18.0096,11.37932 29.27809,11.79799 v -44.61014 z m 16.37168,0 -0.0199,44.61014 c 9.57891,-0.35961 18.38744,-3.57857 25.60581,-8.83976 -8.16593,-8.89549 -13.14482,-20.78024 -13.14482,-33.84851 0,-0.64588 0.0694,-1.28217 0.0694,-1.92248 z m 16.09895,0 c -0.0686,0.63949 -0.0678,1.2758 -0.0678,1.92248 0,12.25809 4.70045,23.34 12.39119,31.61943 9.51991,-8.14124 15.67315,-20.08191 16.17305,-33.54231 z"
       id="path17200-1"
       style="fill:#ffcc00;stroke-width:0.204128" />
    <text
       xml:space="preserve"
       style="font-style:normal;font-variant:normal;font-weight:bold;font-stretch:normal;font-size:110.897px;line-height:1.25;font-family:Inter;-inkscape-font-specification:'Inter Bold';stroke-width:2.77242"
       x="193.68279"
       y="309.13263"
       id="text18734"><tspan
         sodipodi:role="line"
         id="tspan18732"
         style="font-style:normal;font-variant:normal;font-weight:bold;font-stretch:normal;font-family:helvetica;-inkscape-font-specification:'Inter Bold';stroke-width:2.77242"
         x="193.68279"
         y="309.13263">NBA</tspan></text>
  </g>
</svg>
